<svg xmlns="http://www.w3.org/2000/svg" viewBox="0 0 128 128" role="img" aria-labelledby="title desc">
  <title id="title">Dipole Agent</title>
  <desc id="desc">The Dipole IM mark with a gold orbital path representing governed Agent work.</desc>
  <path fill="#0B2A4A" d="M12 31c0-11 9-20 20-20h28c11 0 20 9 20 20v18c0 11-9 20-20 20H43L25 88V69h-1c-7 0-12-5-12-12z"/>
  <path fill="#F2262A" d="M116 97c0 11-9 20-20 20H68c-11 0-20-9-20-20V79c0-11 9-20 20-20h17l18-19v19h1c7 0 12 5 12 12z"/>
  <path fill="#fff" d="M39 46c0-6 5-11 11-11h28c6 0 11 5 11 11v36c0 6-5 11-11 11H50c-6 0-11-5-11-11z"/>
  <circle cx="56" cy="64" r="6" fill="#0B2A4A"/>
  <circle cx="72" cy="64" r="6" fill="#F2262A"/>
  <path d="M24 104c13 17 55 20 76 1 15-14 14-39 0-52" fill="none" stroke="#F4B000" stroke-linecap="round" stroke-width="4"/>
  <circle cx="102" cy="52" r="6" fill="#F4B000" stroke="#F8F1E4" stroke-width="3"/>
</svg>
